<svg width="888" height="294" viewBox="0 0 888 294" fill="none" xmlns="http://www.w3.org/2000/svg">
<path d="M144.55 32.4486C147.626 35.3006 149.705 38.1079 151.765 41.7533C152.363 42.802 152.961 43.8506 153.577 44.9311C154.208 46.0506 154.838 47.1702 155.488 48.3236C156.82 50.6663 158.156 53.0065 159.492 55.3471C159.997 56.2341 159.997 56.2341 160.512 57.1391C164.459 64.0646 168.529 70.916 172.601 77.7685C173.108 78.622 173.614 79.4755 174.136 80.3549C174.58 81.1006 175.024 81.8463 175.482 82.6147C176.213 83.8693 176.901 85.1498 177.55 86.4486C178.21 86.4486 178.87 86.4486 179.55 86.4486C181.287 84.0019 182.901 81.5527 184.488 79.0111C185.486 77.4394 186.485 75.8678 187.484 74.2963C187.994 73.4882 188.505 72.6801 189.03 71.8476C191.787 67.4973 194.598 63.1822 197.406 58.8651C199.831 55.1302 202.225 51.3794 204.582 47.601C205.079 46.8121 205.576 46.0232 206.088 45.2104C207.045 43.6884 207.995 42.1613 208.935 40.6283C210.061 38.8491 211.297 37.1404 212.55 35.4486C215.964 35.4486 216.945 36.1173 219.738 37.9486C220.453 38.4127 221.169 38.8768 221.906 39.3549C222.72 39.8963 222.72 39.8963 223.55 40.4486C222.062 44.701 219.84 48.2048 217.3 51.8861C212.385 59.1314 207.668 66.4923 202.989 73.8918C199.297 79.7231 195.566 85.5276 191.814 91.3202C191.306 92.1042 190.799 92.8882 190.276 93.696C189.034 95.6137 187.792 97.5312 186.55 99.4486C187.429 99.4459 188.307 99.4431 189.213 99.4403C210.569 99.3741 231.925 99.3244 253.282 99.2932C263.61 99.2777 273.937 99.2566 284.265 99.2223C293.265 99.1925 302.264 99.1731 311.264 99.1664C316.031 99.1625 320.798 99.1532 325.565 99.1314C330.049 99.1111 334.532 99.1048 339.016 99.1093C340.665 99.1085 342.313 99.1025 343.962 99.091C346.207 99.0762 348.452 99.0797 350.698 99.0879C351.956 99.0851 353.214 99.0823 354.511 99.0795C357.55 99.4486 357.55 99.4486 359.454 100.507C361.151 103.512 360.97 106.522 360.945 109.882C360.951 110.645 360.957 111.408 360.963 112.195C360.98 114.761 360.975 117.326 360.97 119.892C360.978 121.728 360.986 123.564 360.996 125.401C361.018 130.394 361.021 135.388 361.019 140.382C361.019 144.547 361.028 148.712 361.036 152.877C361.055 162.702 361.058 172.526 361.051 182.35C361.045 192.494 361.068 202.637 361.105 212.781C361.135 221.482 361.147 230.184 361.143 238.885C361.141 244.085 361.146 249.286 361.171 254.486C361.193 259.375 361.191 264.264 361.171 269.154C361.167 270.95 361.173 272.747 361.187 274.543C361.205 276.992 361.192 279.439 361.172 281.889C361.184 282.602 361.197 283.316 361.21 284.052C361.147 287.55 360.889 289.107 358.392 291.63C355.085 293.746 353.358 293.95 349.465 293.952C347.619 293.968 347.619 293.968 345.737 293.984C344.375 293.975 343.013 293.966 341.651 293.957C340.201 293.961 338.752 293.968 337.303 293.975C333.32 293.992 329.337 293.984 325.354 293.972C321.059 293.962 316.764 293.976 312.469 293.987C304.054 294.005 295.64 294.001 287.226 293.99C280.389 293.981 273.553 293.98 266.716 293.984C265.744 293.984 264.771 293.985 263.769 293.986C261.794 293.987 259.819 293.988 257.844 293.99C239.316 294.001 220.788 293.988 202.26 293.966C186.354 293.949 170.447 293.952 154.541 293.97C136.079 293.992 117.616 294 99.154 293.988C97.1864 293.986 95.2187 293.985 93.2511 293.984C92.283 293.983 91.3148 293.983 90.3173 293.982C83.4863 293.979 76.6553 293.984 69.8243 293.994C61.5032 294.005 53.1823 294.002 44.8613 293.981C40.6137 293.97 36.3663 293.966 32.1187 293.979C28.2333 293.991 24.3483 293.985 20.4629 293.963C19.0545 293.959 17.6461 293.961 16.2377 293.971C14.3286 293.983 12.4194 293.968 10.5103 293.952C9.44831 293.951 8.3863 293.951 7.29209 293.95C3.83906 293.319 2.65555 292.214 0.550419 289.449C0.157263 286.818 0.00921112 284.606 0.0424844 281.978C0.0362444 281.223 0.0300078 280.467 0.0235788 279.689C0.00761491 277.156 0.0202624 274.624 0.0328409 272.091C0.0274212 270.276 0.0202994 268.461 0.0116006 266.646C-0.00665537 261.714 0.000438806 256.783 0.0131112 251.851C0.0232287 246.692 0.0138546 241.534 0.0075723 236.375C0.000291576 227.71 0.00989408 219.046 0.0289346 210.381C0.0506973 200.362 0.0436547 190.343 0.0216256 180.324C0.00347558 171.725 0.000918282 163.126 0.011387 154.527C0.017625 149.39 0.018446 144.253 0.0052377 139.116C-0.00631418 134.286 0.00169288 129.456 0.0248147 124.625C0.0301056 122.852 0.0285815 121.079 0.0197641 119.305C0.00883964 116.885 0.0225334 114.466 0.0424844 112.046C0.0335615 111.344 0.0246391 110.641 0.0154458 109.917C0.0689999 106.57 0.542992 104.462 2.15822 101.511C5.34616 98.7625 7.15206 98.8316 11.3334 98.8474C12.0147 98.8431 12.696 98.8388 13.398 98.8344C15.6802 98.8262 17.9607 98.8537 20.2428 98.881C21.8788 98.8824 23.5149 98.8816 25.1509 98.8788C29.593 98.8774 34.0343 98.9068 38.4762 98.9417C43.118 98.9729 47.7598 98.9759 52.4017 98.9818C61.1919 98.9973 69.9819 99.0384 78.772 99.0885C88.7791 99.1444 98.7862 99.1719 108.793 99.197C129.379 99.2493 149.965 99.3373 170.55 99.4486C168.544 95.9652 166.537 92.4821 164.53 88.9994C163.52 87.2483 162.512 85.4969 161.503 83.7455C156.213 74.5692 150.85 65.4372 145.453 56.3236C144.982 55.5244 144.511 54.7252 144.026 53.9018C142.982 52.1664 141.908 50.4491 140.813 48.7455C140.253 47.8638 139.693 46.9821 139.117 46.0736C138.602 45.2822 138.087 44.4907 137.557 43.6752C136.55 41.4486 136.55 41.4486 136.703 39.2963C138.092 36.269 140.774 35.1258 143.55 33.4486C143.88 33.1186 144.21 32.7886 144.55 32.4486ZM12.5504 111.449C12.5504 167.549 12.5504 223.649 12.5504 281.449C123.43 281.449 234.31 281.449 348.55 281.449C348.55 225.349 348.55 169.249 348.55 111.449C237.67 111.449 126.79 111.449 12.5504 111.449Z" fill="#3A80F2"/>
<path d="M747.55 153.449C764.38 153.449 781.21 153.449 798.55 153.449C801.11 165.608 803.567 177.714 805.675 189.949C805.929 191.407 806.183 192.865 806.437 194.324C806.805 196.437 807.174 198.55 807.54 200.663C808.513 206.264 809.52 211.858 810.55 217.449C810.88 217.449 811.21 217.449 811.55 217.449C811.673 216.706 811.797 215.963 811.923 215.198C813.084 208.194 814.246 201.19 815.41 194.187C816.008 190.586 816.606 186.986 817.203 183.385C817.778 179.91 818.355 176.434 818.934 172.959C819.261 170.989 819.587 169.02 819.912 167.05C820.113 165.849 820.313 164.648 820.519 163.411C820.782 161.825 820.782 161.825 821.051 160.207C821.462 157.937 821.991 155.687 822.55 153.449C840.04 153.449 857.53 153.449 875.55 153.449C876.949 163.24 878.275 173.005 879.425 182.824C879.509 183.536 879.593 184.249 879.68 184.983C881.886 203.779 883.73 222.612 885.55 241.449C885.672 242.705 885.793 243.961 885.919 245.255C886.471 250.985 887.013 256.717 887.55 262.449C874.68 262.449 861.81 262.449 848.55 262.449C847.56 238.359 846.57 214.269 845.55 189.449C840.803 213.768 836.139 238.099 831.55 262.449C818.35 262.449 805.15 262.449 791.55 262.449C790.829 258.654 790.107 254.859 789.363 250.949C787.488 241.143 785.534 231.358 783.427 221.599C781.226 211.262 779.414 200.85 777.55 190.449C777.528 191.1 777.505 191.751 777.481 192.422C777.24 199.286 776.996 206.15 776.751 213.013C776.66 215.565 776.57 218.116 776.48 220.668C776.351 224.364 776.218 228.061 776.086 231.757C776.047 232.873 776.008 233.988 775.969 235.137C775.637 244.256 775.087 253.331 774.55 262.449C761.68 262.449 748.81 262.449 735.55 262.449C736.753 245.279 738.552 228.248 740.583 211.162C740.804 209.303 741.025 207.444 741.246 205.585C741.355 204.663 741.465 203.741 741.577 202.792C742.915 191.462 744.113 180.118 745.294 168.772C745.447 167.322 745.6 165.871 745.754 164.421C745.884 163.166 746.015 161.91 746.149 160.617C746.55 157.449 746.55 157.449 747.55 153.449Z" fill="#FCFCFC"/>
<path d="M58.5504 142.449C96.8304 142.449 135.11 142.449 174.55 142.449C174.55 151.359 174.55 160.269 174.55 169.449C147.82 169.449 121.09 169.449 93.5504 169.449C93.5504 174.399 93.5504 179.349 93.5504 184.449C128.2 183.954 128.2 183.954 163.55 183.449C163.55 191.699 163.55 199.949 163.55 208.449C140.45 208.449 117.35 208.449 93.5504 208.449C93.5504 213.399 93.5504 218.349 93.5504 223.449C96.1573 223.403 96.1573 223.403 98.8168 223.357C104.652 223.256 110.487 223.156 116.323 223.057C119.85 222.998 123.377 222.938 126.904 222.876C143.121 222.592 159.33 222.389 175.55 222.449C175.22 232.019 174.89 241.589 174.55 251.449C136.27 251.449 97.9904 251.449 58.5504 251.449C58.5504 215.479 58.5504 179.509 58.5504 142.449Z" fill="#3A81F4"/>
<path d="M260.55 139.449C261.677 139.468 262.804 139.487 263.964 139.507C280.502 140.243 296.588 148.263 308.55 159.449C310.155 161.406 311.327 163.224 312.55 165.449C306.388 169.424 300.063 172.897 293.55 176.261C292.585 176.763 291.619 177.265 290.625 177.783C288.268 179.008 285.91 180.23 283.55 181.449C282.861 180.978 282.171 180.508 281.461 180.023C273.083 174.472 265.674 171.071 255.55 170.449C254.683 170.384 253.815 170.32 252.922 170.253C244.856 169.917 239.633 172.036 232.8 176.074C227.386 181.789 225.226 187.66 224.988 195.511C225.286 203.117 227.07 208.348 231.8 214.261C241.016 221.592 251.123 222.543 262.55 221.449C268.433 220.065 272.714 218.076 277.55 214.449C263.69 213.954 263.69 213.954 249.55 213.449C249.55 205.529 249.55 197.609 249.55 189.449C270.67 189.449 291.79 189.449 313.55 189.449C313.55 209.909 313.55 230.369 313.55 251.449C304.64 251.449 295.73 251.449 286.55 251.449C285.56 243.199 284.57 234.949 283.55 226.449C282.23 229.419 280.91 232.389 279.55 235.449C274.205 244.358 264.395 248.614 254.816 251.621C243.027 254.332 227.219 254.468 216.55 248.449C215.624 247.951 214.697 247.453 213.742 246.941C201.723 239.929 193.569 229.269 189.675 215.886C188.313 209.1 188.202 202.293 188.113 195.386C188.091 194.298 188.068 193.21 188.045 192.089C188.086 177.899 193.586 164.639 203.55 154.449C220.296 140.643 239.719 138.758 260.55 139.449Z" fill="#3A81F4"/>
<path d="M387.55 153.449C426.16 153.449 464.77 153.449 504.55 153.449C504.55 162.689 504.55 171.929 504.55 181.449C477.82 181.449 451.09 181.449 423.55 181.449C423.55 186.399 423.55 191.349 423.55 196.449C448.63 196.449 473.71 196.449 499.55 196.449C499.55 206.019 499.55 215.589 499.55 225.449C474.14 225.119 448.73 224.789 422.55 224.449C422.55 236.659 422.55 248.869 422.55 261.449C411 261.449 399.45 261.449 387.55 261.449C387.55 225.809 387.55 190.169 387.55 153.449Z" fill="#FBFBFC"/>
<path d="M516.55 153.449C545.26 153.449 573.97 153.449 603.55 153.449C603.55 163.019 603.55 172.589 603.55 182.449C594.64 182.449 585.73 182.449 576.55 182.449C576.55 199.279 576.55 216.109 576.55 233.449C585.13 233.119 593.71 232.789 602.55 232.449C602.55 242.019 602.55 251.589 602.55 261.449C574.17 261.449 545.79 261.449 516.55 261.449C516.55 251.879 516.55 242.309 516.55 232.449C525.13 232.449 533.71 232.449 542.55 232.449C542.55 215.949 542.55 199.449 542.55 182.449C533.97 182.449 525.39 182.449 516.55 182.449C516.55 172.879 516.55 163.309 516.55 153.449Z" fill="#FEFEFE"/>
<path d="M615.55 153.449C627.43 153.449 639.31 153.449 651.55 153.449C651.55 179.189 651.55 204.929 651.55 231.449C658.233 231.284 664.915 231.119 671.8 230.949C689.055 230.54 706.29 230.302 723.55 230.449C723.418 231.167 723.285 231.885 723.148 232.624C721.424 242.729 721.101 251.98 720.55 262.449C685.9 262.449 651.25 262.449 615.55 262.449C615.55 226.479 615.55 190.509 615.55 153.449Z" fill="#FCFCFC"/>
<path d="M237.675 2.88613C242.474 5.57919 245.351 9.45677 247.55 14.4486C248.793 20.089 247.555 24.7634 244.754 29.726C241.938 33.7576 238.237 36.1408 233.55 37.4486C227.201 38.0732 222.846 37.073 217.55 33.4486C213.444 29.2341 211.791 25.5086 211.113 19.6986C211.29 14.4984 213.285 10.4433 216.55 6.44863C223.095 1.09876 229.735 -0.368536 237.675 2.88613Z" fill="#397FF1"/>
<path d="M135.777 1.39004C140.498 4.21031 144.056 7.46073 146.55 12.4486C147.078 18.6603 147.294 24.207 143.55 29.4486C139.374 33.6368 135.209 36.7294 129.175 36.7611C124.08 36.611 120.586 35.4702 116.886 31.7963C112.074 26.4029 111.188 22.3707 111.273 15.1713C111.81 9.90402 114.82 6.97528 118.613 3.63614C123.693 -0.147217 129.84 -1.12022 135.777 1.39004Z" fill="#3A80F3"/>
</svg>
